<svg version="1.1" xmlns="http://www.w3.org/2000/svg" xmlns:xlink="http://www.w3.org/1999/xlink" width="82.40332" height="214.52823" viewBox="0,0,82.40332,214.52823"><g transform="translate(-224.62349,-72.73589)"><g data-paper-data="{&quot;isPaintingLayer&quot;:true}" fill-rule="nonzero" stroke="none" stroke-linecap="butt" stroke-linejoin="miter" stroke-miterlimit="10" stroke-dasharray="" stroke-dashoffset="0" style="mix-blend-mode: normal"><g stroke-width="1"><path d="M269.58565,119.05444c-1.30334,1.055 -5.68272,0.568 -5.81636,0.324c0,-2.677 -0.23386,-5.517 2.54069,-5.922c2.77454,-0.406 3.04181,3.164 3.27567,5.598z" fill="#82783c"/><path d="M268.44935,116.62044c0.26727,0.081 0.46813,0.568 0.46813,1.136c0,0.811 -0.26768,0.892 -0.46813,0.892c-0.53495,-0.081 -0.53495,-1.217 -0.43472,-1.541c0.10023,-0.325 0.26768,-0.487 0.43472,-0.487c0,0 0.03341,0 0,0z" fill="#645a1e"/><path d="M264.77196,116.78244c0.26768,0.081 0.46813,0.568 0.46813,1.136c0,0.811 -0.26727,0.893 -0.46813,0.893c-0.53453,-0.082 -0.53453,-1.217 -0.43431,-1.542c0.10023,-0.324 0.26727,-0.487 0.43431,-0.487c0,0 0.03382,0 0,0z" fill="#645a1e"/><path d="M280.75105,129.84544v2.109c-0.70199,0 -2.90859,0.162 -4.27916,0.081v-2.109c1.20353,-0.081 3.07563,-0.163 4.27916,-0.081z" fill="#fab414"/><path d="M281.65349,135.36144c-0.66858,0.406 -1.30375,0.65 -1.97233,0.812l-1.00266,-10.872c0.63517,-0.73 1.9051,-0.73 1.9051,-0.73z" fill="#ffc800"/><path d="M256.61578,129.92644v2.109c-1.37057,0.081 -3.57676,-0.081 -4.27916,-0.081v-2.109c1.17012,-0.082 3.04222,0 4.27916,0.081z" fill="#fab414"/><path d="M252.50407,124.57144c0,0 1.27034,0 1.9051,0.73l-1.00266,10.872c-0.66858,-0.162 -1.30375,-0.406 -1.97233,-0.812z" fill="#ffc800"/><path d="M279.24644,147.93744l-25.20476,0.243c0.33408,-7.22 0.90244,-21.013 1.77188,-25.394c1.03607,-5.192 3.14204,-3.975 5.248,-4.057c2.2396,-0.081 12.43534,-1.054 15.57778,1.055c0.83562,1.947 2.30641,21.581 2.60709,28.153z" fill="#a0aa1e"/><path d="M260.56003,129.76344c-0.80221,-3.083 0.43472,-7.869 3.27608,-8.356c2.07256,-0.406 4.14511,-0.325 6.18426,0.243c1.53761,0.649 3.81103,5.03 2.2396,9.087c-0.66858,1.704 -3.17544,1.947 -5.91658,1.866c-2.54069,-0.081 -4.98073,0.243 -5.78336,-2.84z" fill="#000000"/><path d="M273.096,124.89544c-0.03382,-0.486 0.06682,-0.973 0.26727,-1.054c0.70199,-0.974 1.37057,-2.029 2.13937,-3.164l0.30068,0.324c-0.03341,0.244 -0.03341,0.487 -0.03341,0.568l-1.63783,2.434c0.10023,0.081 0.16704,0.162 0.26727,0.243c0.3345,0.082 0.66858,0.082 1.03648,0.082c0.23386,0 0.46813,0.162 0.53495,0.73c-0.03341,0.487 -0.16745,0.649 -0.30109,0.649c-0.13363,0 -0.26727,-0.081 -0.36749,-0.081c-0.60176,-0.163 -1.17012,-0.325 -1.77188,-0.487c-0.16704,0 -0.30068,-0.081 -0.43431,-0.244z" fill="#000000"/><path d="M256.64919,123.84144l-0.03341,-0.812c0.06682,-0.081 0.13363,-0.162 0.16704,-0.162c0.23386,0.081 0.46813,0.162 0.70199,0.162c0.13363,0 0.26727,0 0.46813,0c-0.30109,-0.811 -0.66858,-0.973 -0.93626,-1.784l0.23427,-0.812c0.80221,0.893 1.40398,2.515 2.27301,3.164c0.03341,0.244 0.03341,0.487 0.06682,0.812l-0.43472,0.405c-0.80221,-0.73 -1.63783,-0.568 -2.50686,-0.973z" fill="#000000"/></g><g stroke-width="1"><path d="M304.95314,78.73144c-0.86944,2.11 -0.23427,7.546 -0.13405,10.223c0.13405,3.732 0.30109,7.464 0.46813,11.196c0.30109,6.734 0.60176,28.234 -0.10023,34.806l-14.20722,-33.67c-0.23386,-6.409 -0.43431,-20.608 1.63825,-25.394c0.83562,-1.947 2.74114,-4.544 3.84402,-2.272c1.47079,3.083 -0.50113,4.949 -1.63783,5.111c-0.13363,2.353 0.20045,4.381 0.20045,6.572c1.03648,0.081 2.13937,-0.487 3.20927,-0.487c0.7354,-1.217 -0.30109,-7.139 0.33408,-9.33c0.76922,-2.596 3.81103,-3.245 3.77762,-0.811c-0.03341,2.434 -0.3679,2.596 -0.86903,2.758l-1.37057,0.325c-0.46813,0.811 -0.03341,5.111 0,6.328c0.30068,1.136 2.33982,0.811 2.84136,0.162c-0.13363,-2.596 0.10023,-6.409 0.86903,-8.681c0.66858,-1.947 3.07522,-2.515 3.17586,-0.406c0.10023,2.11 -0.03341,1.623 -0.20086,2.272c-0.60176,0.893 -1.20311,0.974 -1.83828,1.298z" fill="#d2e614"/><path d="M296.79655,92.36144c0.86903,3.651 -1.20353,5.031 -2.2396,5.436c-0.3345,1.055 -0.53495,5.355 -0.16745,6.491c0.70199,0.973 1.73847,0.243 2.50728,0.406c0.93585,0.243 1.8387,0.892 2.67432,1.866c1.73806,1.947 3.27608,4.543 4.24534,8.681c1.77188,7.545 1.93892,19.39 1.47079,27.828c-2.40664,0.73 -4.8471,-0.162 -7.25374,0c-1.93892,0.081 -4.14511,0.974 -6.05063,0.243c-0.23386,-5.598 -0.13363,-11.196 -0.40131,-16.794c-0.23386,-5.355 -0.70199,-10.547 -0.83562,-15.983c-0.10023,-4.138 -0.50154,-11.683 0.66858,-15.09c1.1033,-3.002 3.97807,-5.842 5.38205,-3.084z" fill="#a0aa1e"/><path d="M291.64837,134.95644h14.34085c0.13363,8.681 -1.37057,25.394 -3.91084,35.13c-1.80529,6.977 -7.35438,17.606 -10.83091,16.632c-0.20045,-2.028 -0.7688,-34.157 -0.7688,-34.157c0.46772,-3.001 0.83562,-6.084 1.10289,-9.249c0.13405,-2.839 0.16745,-5.598 0.06682,-8.437z" fill="#824600"/></g><g stroke-width="1"><path d="M224.85886,77.67744c-0.16745,-0.649 -0.30109,-0.163 -0.20086,-2.272c0.10064,-2.11 2.50728,-1.542 3.17586,0.406c0.7688,2.271 1.00266,6.084 0.86903,8.681c0.46813,0.649 2.54069,0.973 2.80795,-0.163c0.03341,-1.217 0.46813,-5.517 0,-6.328l-1.37057,-0.324c-0.50113,-0.163 -0.83562,-0.325 -0.86903,-2.759c-0.03341,-2.434 3.0084,-1.785 3.77762,0.811c0.63517,2.191 -0.40131,8.114 0.36749,9.331c1.06989,0 2.17278,0.568 3.20927,0.486c0,-2.19 0.33408,-4.218 0.20045,-6.571c-1.13671,-0.163 -3.10863,-2.029 -1.63783,-5.112c1.10289,-2.271 3.0084,0.325 3.84402,2.191c2.07256,4.787 1.87211,18.985 1.63825,25.394l-14.20722,33.589c-0.70199,-6.572 -0.40131,-28.072 -0.10023,-34.725c0.16704,-3.732 0.33408,-7.464 0.46813,-11.196c0.10023,-2.677 0.7354,-8.113 -0.13405,-10.222c-0.66858,-0.325 -1.26993,-0.325 -1.83828,-1.217z" fill="#d2e614"/><path d="M240.20237,95.60744c1.17012,3.407 0.7688,10.953 0.66858,15.09c-0.13363,5.355 -0.60176,10.629 -0.83562,15.983c-0.26768,5.598 -0.16745,11.197 -0.40131,16.795c-1.90551,0.73 -4.1117,-0.163 -6.05063,-0.244c-2.40664,-0.162 -4.8471,0.73 -7.25374,0c-0.46813,-8.437 -0.30109,-20.283 1.47079,-27.828c0.96926,-4.138 2.47387,-6.734 4.24534,-8.681c0.83562,-0.974 1.73847,-1.623 2.67432,-1.866c0.80221,-0.162 1.8387,0.568 2.54069,-0.406c0.36749,-1.217 0.16704,-5.436 -0.16745,-6.49c-1.03607,-0.406 -3.10863,-1.785 -2.2396,-5.436c1.37057,-2.678 4.27875,0.162 5.34864,3.083z" fill="#a0aa1e"/><path d="M241.30567,149.15443c0,0 1.93851,36.996 1.73806,39.024c-3.47653,0.974 -11.69994,-11.033 -13.50482,-17.93c-2.57409,-9.817 -4.0783,-26.773 -3.91125,-35.373h14.37426c-0.10023,2.839 -0.10023,5.76 0.03341,8.6c0.10023,2.271 0.56835,4.219 1.27034,5.679z" fill="#824600"/></g><g stroke-width="1"><path d="M280.75105,260.06144l10.22873,3.814c0,0.405 -1.53761,22.311 -1.53761,22.311l4.04489,0.162c0,0 -0.03341,0.649 -0.06682,0.893c-1.33716,0.081 -12.97028,-0.081 -12.97028,-0.081c0,0 0.23427,-26.612 0.30109,-27.099z" fill="#a0aa1e"/><path d="M278.00992,275.31444c-0.63517,-13.468 -0.56835,-50.626 -0.56835,-52.817l16.11232,16.876c0.13363,2.272 -0.66858,22.636 -0.83562,27.017c-0.10023,2.839 -0.03341,5.922 -0.10023,8.843z" fill="#005a5a"/><path d="M276.67276,269.14844h17.21562v13.387h-17.21562z" fill="#006482"/></g><g stroke-width="1"><path d="M255.54588,287.16044c0,0 -11.63312,0.162 -12.97028,0.081c-0.03341,-0.244 -0.06682,-0.893 -0.06682,-0.893l4.04489,-0.162c0,0 -1.53761,-21.906 -1.53761,-22.311l10.22915,-3.814c0.03341,0.487 0.30068,27.099 0.30068,27.099z" fill="#a0aa1e"/><path d="M244.4143,274.01644c-0.86903,-8.356 -1.57102,-33.021 -1.57102,-33.021l14.60812,-10.222l0.03341,43.162z" fill="#005a5a"/><path d="M242.40856,270.77144h16.34659v13.387h-16.34659z" fill="#006482"/></g><g stroke-width="1"><path d="M241.33908,170.49244c-0.16745,-7.302 -0.03341,-21.5 -0.03341,-21.5c0,0 3.04181,-3.651 5.48186,-5.842c2.44046,-2.19 5.88358,-3.407 5.88358,-3.407c0,0 25.20476,-0.487 28.58106,-0.163c3.04222,0.325 8.12318,3.408 9.82825,7.951c0.10023,1.38 0.96926,16.714 1.00266,17.038c0.40131,5.03 0.80221,22.636 0.80221,22.636l-25.97356,24.745l-25.00472,-23.69c0,0 -0.33408,-7.383 -0.56794,-17.768z" fill="#a0640a"/><path d="M270.22082,194.50744l-3.17544,45.677l-24.2355,0.73l-0.93626,-52.654c0,0 8.29022,-26.693 10.16233,-28.397c0.03341,0.244 1.5042,0 1.5042,0c0,0 6.75261,-0.162 13.50523,-0.162z" fill="#008264"/><path d="M267.07878,159.70143c6.11744,0 12.43534,0.081 14.57471,0.406c2.17278,2.921 11.23181,27.098 11.23181,27.098l0.66858,52.168l-26.50851,0.811z" fill="#00a08c"/><path d="M282.68956,137.87744c0.56835,8.356 0.46813,36.428 0.46813,36.428l-3.20927,-0.081l-0.33408,-36.347z" fill="#005a5a"/><path d="M281.6869,168.05844c0.50154,0.081 0.90244,1.136 0.86903,2.353c0,1.703 -0.53495,2.028 -0.96926,1.947c-1.1033,-0.081 -1.13671,-2.515 -0.90244,-3.246c0.23386,-0.73 0.56794,-1.135 0.93585,-1.135c0,0 0.03341,0 0.06682,0.081z" fill="#ffc800"/><path d="M253.74101,137.87744l-0.3345,36.347l-3.17586,0.081c0,0 -0.10023,-28.072 0.46813,-36.428z" fill="#005a5a"/><path d="M251.73527,167.97744c0.36749,0 0.70199,0.405 0.93585,1.135c0.23386,0.731 0.20045,3.165 -0.90244,3.246c-0.43472,0.081 -0.96967,-0.244 -0.96967,-1.947c-0.03341,-1.217 0.3679,-2.272 0.86944,-2.353c0,-0.081 0.03341,-0.081 0.06682,-0.081z" fill="#ffc800"/><path d="M272.59446,179.49744c0.03341,1.136 0.03341,2.272 0.03341,3.408c0.03341,4.949 -0.50154,11.277 -2.50728,14.036c-1.73806,2.434 -5.44886,2.109 -7.0867,-0.812c-1.37057,-3.569 -2.30641,-11.115 -1.77188,-16.632z" fill="#005a5a"/><path d="M260.4598,174.30544h12.83665v8.762h-12.83665z" fill="#006482"/><path d="M267.07878,176.73944c0.53495,0.081 0.93585,1.217 0.90244,2.515c0,1.785 -0.50154,2.109 -0.96926,2.028c-1.13671,-0.162 -1.20353,-2.596 -0.93626,-3.407c0.23427,-0.73 0.60176,-1.217 0.96967,-1.136z" fill="#fab414"/></g><path d="M279.93317,159.13683c0,0.83151 -0.60399,3.31704 -0.74203,4.0095c-0.16383,0.82184 -0.12731,1.88437 -0.409,2.10362c-0.23037,0.17931 -1.11378,1.91625 -1.4771,1.77203c-0.07871,-0.03124 0.28483,-2.17696 0.2168,-2.17696c-0.65798,0 -1.9422,0.44777 -2.30064,-0.8247c-0.23514,-0.83474 0.32773,-3.13641 0.32773,-4.24571c0,-0.88524 -0.43784,-3.63085 -0.28268,-4.35516c0.33565,-1.56691 0.72127,-1.56563 1.46643,-1.56563c0.47505,0 2.5769,1.49448 2.91742,2.2133c0.44051,0.92991 0.28308,1.49028 0.28308,3.0697z" fill="#ff0000" stroke-width="NaN"/><path d="M276.29668,162.78285c0,0.75 -0.30934,0.75 -0.30934,0.75l0.08316,-0.12485c-0.32485,0.48671 -0.93534,0.12591 -0.7476,1.10631c0,0 0.05698,0.55263 -0.12702,0.81506c-0.17035,3.1809 -0.03912,6.59503 -0.03912,9.78403v1.27557c0,0 0,0.75 -0.30934,0.75c-0.30934,0 -0.30934,-0.75 -0.30934,-0.75v-1.27557c0,-3.52305 -0.14417,-7.27864 0.09189,-10.75308c0,0 0.01248,-0.18163 0.06221,-0.3499c0.02011,-1.48631 0.54729,-0.95753 1.03587,-1.8516l0.25927,-0.12596c0,0 0.30934,0 0.30934,0.75z" fill="#ff0000" stroke-width="0.5"/><path d="M280.19622,174.80042c-0.30934,0 -0.30934,-0.75 -0.30934,-0.75v-0.42519c0,-4.11389 -0.30716,-7.97364 -0.93597,-11.80315c-0.2495,-1.51948 -0.71584,-2.17335 -0.73005,-3.92893c0,0 0,-0.75 0.30934,-0.75c0.30934,0 0.30934,0.75 0.30934,0.75c-0.02071,1.69695 0.80746,4.50987 1.07813,6.17319c0.4931,3.03022 0.58788,6.31273 0.58788,9.55888v0.42519c0,0 0,0.75 -0.30934,0.75z" fill="#ff0000" stroke-width="0.5"/><path d="M278.17947,176.71378c-0.30934,0 -0.30934,-0.75 -0.30934,-0.75l0.00273,-0.73724c0.2362,-4.28071 0.01366,-8.82126 0.35401,-13.01597c0,0 0.06067,-0.73544 0.36399,-0.58835c0.30333,0.14709 0.24266,0.88252 0.24266,0.88252c-0.34757,4.1358 -0.11388,8.68741 -0.34746,12.9207l0.00273,0.53834c0,0 0,0.75 -0.30934,0.75z" fill="#ff0000" stroke-width="0.5"/><path d="M273.03561,160.72361c-0.20289,-0.56615 0.03062,-1.05806 0.03062,-1.05806l0.1744,-0.35761c0.93343,-1.46062 1.65952,-1.7396 2.74672,-1.7396c0,0 0.30934,0 0.30934,0.75c0,0.75 -0.30934,0.75 -0.30934,0.75c-0.97259,0 -1.57636,0.18313 -2.41033,1.4985l-0.10501,0.231c0,0 -0.23351,0.49191 -0.4364,-0.07424z" fill="#ff0000" stroke-width="0.5"/><path d="M276.91048,152.57826c0,0.55925 0,1.1185 0,1.67776c1.01532,-1.16535 1.98849,-3.20977 3.11037,-3.27814h0.35074c0,0 0.30934,0 0.30934,0.75c0,0.75 -0.30934,0.75 -0.30934,0.75h-0.35074c-0.82909,-0.0765 -1.73444,1.60539 -2.54208,2.72953c1.81874,-0.18587 3.57919,-1.46579 5.44056,-1.46579h0.33001c0.04993,-0.25156 0.15605,-0.42519 0.2789,-0.42519c0.17084,0 0.30934,0.33579 0.30934,0.75c0,0.39611 -0.12665,0.7205 -0.28713,0.7481c-0.07274,0.42709 -0.28526,0.42709 -0.28526,0.42709h-0.34586c-1.11818,0 -2.19691,0.45771 -3.27473,0.86546c0.49828,0.88665 0.61034,1.76806 1.09402,2.68508c0.74024,1.40342 1.70467,2.28735 2.38617,3.86596c0.58174,1.34753 0.84211,3.45714 1.32397,4.69952c0.08527,0.03199 0.26567,0.16735 0.26567,0.7401c0,0.75 -0.30934,0.75 -0.30934,0.75l-0.30642,-0.21967c-0.56203,-1.43728 -0.7519,-3.3621 -1.39456,-4.87011c-0.66364,-1.55721 -1.63322,-2.38728 -2.35073,-3.79211c-0.51481,-1.00795 -0.57385,-1.87858 -1.11791,-2.72424c0,0 -0.23131,-0.37388 -0.10918,-0.94443c-0.69006,0.24229 -1.38226,0.43082 -2.08672,0.43261c0,0 -0.30934,0 -0.30934,-0.75c0,-0.05412 0.00161,-0.10433 0.0046,-0.15092c-0.01654,-0.01692 -0.03293,-0.03863 -0.04883,-0.06611c-0.11257,0.46154 -0.34521,0.30039 -0.34521,0.30039c-0.99637,-0.69316 -1.95867,-0.60893 -2.98399,-0.60893h-0.35074c0,0 -0.30934,0 -0.30934,-0.75c0,-0.75 0.30934,-0.75 0.30934,-0.75h0.35074c1.00917,0 1.95775,-0.05317 2.935,0.5263c0,-0.35686 0,-0.75898 0,-1.14503c-0.04052,0.00877 -0.08675,-0.00331 -0.13922,-0.04572c-0.29346,-0.23717 -0.19564,-0.94868 -0.19564,-0.94868c0.34555,-2.50907 0.4986,-4.11549 1.69642,-4.12695h0.08769c0,0 0.30934,0 0.30934,0.75c0,0.75 -0.30934,0.75 -0.30934,0.75h-0.08769c-0.70872,-0.00808 -0.82277,0.77963 -0.98645,2.12665c0.24357,0.09796 0.24357,0.73748 0.24357,0.73748z" fill="#ff0000" stroke-width="0.5"/></g></g></svg>