<svg version="1.1" xmlns="http://www.w3.org/2000/svg" xmlns:xlink="http://www.w3.org/1999/xlink" width="59.83088" height="73.06655" viewBox="0,0,59.83088,73.06655"><g transform="translate(-210.5028,-146.7793)"><g data-paper-data="{&quot;isPaintingLayer&quot;:true}" fill-rule="nonzero" stroke-linecap="butt" stroke-linejoin="miter" stroke-miterlimit="10" stroke-dasharray="" stroke-dashoffset="0" style="mix-blend-mode: normal"><path d="M264.07963,153.21777c6.74265,6.74265 7.09753,50.21503 -0.35488,59.97414c-7.45241,9.7591 -33.35839,7.09753 -44.53701,2.66157c-11.17861,-4.43596 -7.80728,-35.48765 -7.80728,-48.79552c0,-13.30787 8.3396,-18.0987 18.0987,-19.51821c15.96944,-2.12926 29.09988,0.35488 34.60046,5.67802z" fill="#cfebe2" stroke="none" stroke-width="1"/><path d="M261.77294,160.13786c3.7262,5.14571 5.50059,41.34312 0.70975,49.32784c-4.79083,7.98472 -30.69682,8.69448 -40.10105,3.37133c-7.27497,-4.08108 -8.51704,-16.32432 -8.69448,-34.95534c-0.17744,-18.98589 6.38778,-23.42185 13.13043,-24.66392c26.26086,-5.32315 31.40657,1.59694 34.95534,6.92009z" fill="#ab3f0a" stroke="none" stroke-width="1"/><g stroke="#000000" stroke-width="1.5"><path d="M256.30928,193.23783c1.34644,1.72261 -0.70402,5.57493 -4.57988,8.60444c-3.87586,3.02951 -8.10934,4.08896 -9.45579,2.36637c-1.34644,-1.72259 0.70402,-5.57493 4.57988,-8.60444c3.87586,-3.02951 8.10934,-4.08896 9.45579,-2.36637z" fill="#d81212"/><path d="M245.17845,197.15737c0.74815,-0.67173 1.03668,-0.58826 1.39099,-0.94594c0.26829,-0.27082 0.98194,-1.10406 1.47801,-0.65782c0.09218,0.08292 2.00635,2.35423 2.08396,2.4528c0.36535,0.46402 2.00834,1.91516 1.97437,2.55665c-0.05886,1.11201 -1.06582,1.72261 -2.254,2.43827c-0.34673,0.20884 -0.60318,0.19669 -0.98714,0.49379c-2.45876,1.90253 -5.41137,2.22634 -6.59485,0.72322c-1.18348,-1.50312 0.05284,-4.50573 2.5116,-6.40825c0.28395,-0.21972 0.21167,-0.48627 0.39705,-0.65272z" fill="#d9d9d9"/></g><path d="M222.55908,212.83703c-1.06463,-0.53231 -1.95182,-1.41951 -2.83901,-2.3067c7.45241,-3.7262 26.79318,-7.98472 42.23031,-0.17744c-6.0329,7.27497 -30.51938,7.62985 -39.3913,2.48414z" fill="#9a3a09" stroke="none" stroke-width="1"/><g stroke="#000000" stroke-width="1.5"><path d="M218.01077,204.57312c-1.90058,-4.53738 -1.80653,-8.90041 0.21009,-9.74512c2.01662,-0.84471 5.19213,2.1488 7.09272,6.68618c1.90059,4.5374 1.80655,8.90043 -0.21007,9.74514c-2.01662,0.84471 -5.19215,-2.1488 -7.09274,-6.68618z" fill="#d81212"/><path d="M219.5924,207.15345c-0.13711,-0.33183 -0.41327,-0.33238 -0.52497,-0.55508c-0.45075,-0.89876 -0.29417,-1.15509 -0.5458,-1.59116c-0.19053,-0.33018 -0.80616,-1.23824 -0.24492,-1.59913c0.1043,-0.06707 2.79987,-1.31475 2.91542,-1.36363c0.5439,-0.2301 2.37686,-1.43241 2.98669,-1.23055c1.05714,0.34993 1.3807,1.48223 1.75781,2.81705c0.11006,0.38953 0.03073,0.63369 0.2161,1.08239c1.18706,2.87333 0.72102,5.80686 -1.04091,6.55223c-1.76193,0.74536 -4.3324,-1.23879 -5.51945,-4.11211z" fill="#d9d9d9"/></g><g stroke="#000000" stroke-width="1.5"><path d="M235.90785,195.38478c1.34644,1.72261 -0.70402,5.57493 -4.57988,8.60444c-3.87586,3.02951 -8.10934,4.08896 -9.45579,2.36637c-1.34644,-1.72259 0.70402,-5.57493 4.57988,-8.60444c3.87586,-3.02951 8.10934,-4.08896 9.45579,-2.36637z" fill="#d81212"/><path d="M224.77704,199.30434c0.74815,-0.67173 1.03668,-0.58826 1.39099,-0.94594c0.26829,-0.27082 0.98194,-1.10406 1.47801,-0.65782c0.09218,0.08292 2.00635,2.35423 2.08396,2.4528c0.36535,0.46402 2.00834,1.91516 1.97437,2.55665c-0.05886,1.11201 -1.06582,1.72261 -2.254,2.43827c-0.34673,0.20884 -0.60318,0.19669 -0.98714,0.49379c-2.45876,1.90253 -5.41137,2.22634 -6.59485,0.72322c-1.18348,-1.50312 0.05284,-4.50573 2.5116,-6.40825c0.28395,-0.21972 0.21167,-0.48627 0.39705,-0.65272z" fill="#d9d9d9"/></g><path d="M239.41571,195.80295c-12.77556,0.17744 -22.88954,-2.66157 -28.56756,-4.79083c-0.17744,-5.67802 0,-11.17861 0.17744,-16.14688c4.43596,2.66157 15.43713,6.21034 33.18096,4.79083c13.30787,-1.06463 20.4054,-2.3067 24.84136,-4.08108c0.17744,5.67802 0.17744,11.88836 -0.35488,17.56639c-5.14571,1.06463 -14.3725,2.48414 -29.27731,2.66157z" fill="#f0e0da" stroke="none" stroke-width="1"/><g stroke="#000000" stroke-width="1.5"><path d="M262.69615,199.62472c1.34644,1.72259 -0.70404,5.57493 -4.57988,8.60444c-3.87584,3.02951 -8.10934,4.08896 -9.45579,2.36637c-1.34644,-1.72259 0.70404,-5.57493 4.57988,-8.60444c3.87584,-3.02951 8.10934,-4.08896 9.45579,-2.36637z" fill="#d81212"/><path d="M251.16827,204.19697c0.28395,-0.2197 0.21167,-0.48627 0.39705,-0.65272c0.74815,-0.67173 1.03668,-0.58824 1.39099,-0.94594c0.26827,-0.27082 0.98194,-1.10406 1.47801,-0.65782c0.09218,0.08293 2.00635,2.35425 2.08396,2.45282c0.36535,0.46402 2.00834,1.91518 1.97437,2.55665c-0.05886,1.11199 -1.06582,1.72261 -2.254,2.43827c-0.34673,0.20884 -0.60317,0.19669 -0.98712,0.49379c-2.45876,1.90253 -5.41139,2.22634 -6.59487,0.72322c-1.18348,-1.50312 0.05286,-4.50573 2.51162,-6.40825z" fill="#d9d9d9"/></g><g stroke="#000000" stroke-width="1.5"><path d="M236.79481,200.97338c3.87584,-3.02951 8.10934,-4.08896 9.45579,-2.36637c1.34645,1.72259 -0.70404,5.57493 -4.57988,8.60444c-3.87586,3.02951 -8.10934,4.08896 -9.45579,2.36637c-1.34644,-1.72261 0.70402,-5.57495 4.57988,-8.60446z" fill="#d81212"/><path d="M235.11977,202.52653c0.74815,-0.67173 1.03668,-0.58826 1.39099,-0.94594c0.26829,-0.27082 0.98194,-1.10406 1.47801,-0.65782c0.09218,0.08292 2.00635,2.35423 2.08396,2.4528c0.36535,0.46402 2.00834,1.91516 1.97437,2.55665c-0.05886,1.11201 -1.06582,1.72261 -2.254,2.43827c-0.34673,0.20884 -0.60318,0.19669 -0.98714,0.49379c-2.45876,1.90253 -5.41137,2.22634 -6.59485,0.72322c-1.18348,-1.50312 0.05284,-4.50573 2.5116,-6.40825c0.28395,-0.21972 0.21167,-0.48627 0.39705,-0.65272z" fill="#d9d9d9"/></g><path d="M269.83369,155.63932c0,4.29421 -13.12997,7.77535 -29.3266,7.77535c-16.19663,0 -29.3266,-3.48114 -29.3266,-7.77535c0,-4.29421 13.12997,-7.77536 29.32661,-7.77536c16.19663,0 29.32661,3.48115 29.32661,7.77536z" fill="#ff5f0f" stroke="#000000" stroke-width="1"/><path d="M270.33368,156.31543c0,0.5 -0.5,0.5 -0.5,0.5l-0.11445,-0.05279c-0.35908,0.17894 -0.71545,0.36603 -1.05326,0.58246c-0.74915,1.04365 -3.21227,2.03288 -4.53002,2.17237c-4.19893,0.44445 -8.69045,0.00243 -12.90968,0.00243c-4.61541,0 -9.23082,0 -13.84624,0c-2.21171,0 -5.04169,0.24387 -7.21411,-0.1824c-1.88005,-0.36891 -4.43546,-1.07643 -6.30824,-1.0008c-3.88855,0 -9.4131,-0.19186 -13.0432,-1.73072c0,0 -0.45957,-0.19696 -0.26261,-0.65653c0.19696,-0.45957 0.65653,-0.26261 0.65653,-0.26261c3.48159,1.51062 8.91495,1.64987 12.64928,1.64987c4.42284,0.11557 8.92286,1.18321 13.52235,1.18321c4.61541,0 9.23082,0 13.84624,0c4.2047,0 8.62242,0.3916 12.81114,0.00243c1.07301,-0.09969 3.40114,-1.02152 3.92145,-1.88434c0.41881,-0.28642 0.85962,-0.54231 1.31315,-0.76978l0.56167,-0.05279c0,0 0.5,0 0.5,0.5z" fill="#000000" stroke="none" stroke-width="0.5"/><text transform="translate(229.77371,190.57243) scale(0.27044,0.27044)" font-size="40" xml:space="preserve" fill="#000000" fill-rule="nonzero" stroke="none" stroke-width="1" stroke-linecap="butt" stroke-linejoin="miter" stroke-miterlimit="10" stroke-dasharray="" stroke-dashoffset="0" font-family="Handwriting" font-weight="normal" text-anchor="start" style="mix-blend-mode: normal"><tspan x="0" dy="0">ILAÇ</tspan></text><path d="M230.96401,180.8247c0,-0.27614 0.22386,-0.5 0.5,-0.5c0.27614,0 0.5,0.22386 0.5,0.5c0,0.27614 -0.22386,0.5 -0.5,0.5c-0.27614,0 -0.5,-0.22386 -0.5,-0.5z" fill="#000000" stroke="none" stroke-width="0.5"/></g></g></svg>